<svg width="400" height="800" xmlns="http://www.w3.org/2000/svg">
  <rect width="400" height="800" fill="#f5f5f5"/>
  <rect x="10" y="10" width="380" height="780" rx="20" ry="20" fill="#e0e0e0" stroke="#ccc" stroke-width="2"/>
  <rect x="25" y="25" width="350" height="750" rx="15" ry="15" fill="#f8f8f8"/>
  <text x="200" y="400" font-family="Arial, sans-serif" font-size="24" text-anchor="middle" fill="#999">应用截图</text>
  <!-- 顶部状态栏 -->
  <rect x="25" y="25" width="350" height="25" rx="5" ry="5" fill="#ddd"/>
  <!-- 底部导航栏 -->
  <rect x="25" y="750" width="350" height="25" rx="5" ry="5" fill="#ddd"/>
  <!-- 模拟内容 -->
  <rect x="45" y="80" width="310" height="40" rx="5" ry="5" fill="#ddd"/>
  <rect x="45" y="140" width="150" height="100" rx="5" ry="5" fill="#ddd"/>
  <rect x="205" y="140" width="150" height="100" rx="5" ry="5" fill="#ddd"/>
  <rect x="45" y="260" width="310" height="30" rx="5" ry="5" fill="#ddd"/>
  <rect x="45" y="310" width="310" height="100" rx="5" ry="5" fill="#ddd"/>
  <rect x="45" y="430" width="310" height="30" rx="5" ry="5" fill="#ddd"/>
  <rect x="45" y="480" width="150" height="150" rx="5" ry="5" fill="#ddd"/>
  <rect x="205" y="480" width="150" height="150" rx="5" ry="5" fill="#ddd"/>
  <rect x="45" y="650" width="310" height="40" rx="5" ry="5" fill="#ddd"/>
</svg>
